<svg width="68" height="130" xmlns="http://www.w3.org/2000/svg"><path style="fill:#b3b3b3;fill-opacity:1;fill-rule:nonzero;stroke-width:1.21955" d="M0 36h68v90H0Z"/><g aria-label="NOVA" style="font-style:normal;font-variant:normal;font-weight:800;font-stretch:normal;font-size:267.972px;line-height:0%;font-family:Raleway;-inkscape-font-specification:'Raleway Ultra-Bold';letter-spacing:0;word-spacing:0;fill:#b3b3b3;fill-opacity:1;stroke:none;stroke-width:22.331px;stroke-linecap:butt;stroke-linejoin:miter;stroke-opacity:1"><path d="M53.238 28.895V137.69H9.291v-190.26h34.3L132.29 59.176V-52.57h43.947v190.26h-35.372zM296.226 139.3q-21.17 0-38.588-8.308-17.418-8.307-29.745-21.706-12.327-13.666-19.294-31.084-6.7-17.419-6.7-35.909 0-18.758 6.968-36.176 7.235-17.418 19.83-30.549 12.863-13.398 30.28-21.17 17.419-8.039 38.053-8.039 21.17 0 38.588 8.308 17.418 8.307 29.745 21.973 12.326 13.667 19.026 31.085 6.699 17.418 6.699 35.372 0 18.758-7.235 36.177-6.968 17.418-19.562 30.816-12.595 13.13-30.013 21.17-17.418 8.04-38.052 8.04zM246.65 42.83q0 10.986 3.216 21.437 3.215 10.183 9.379 18.222 6.431 8.04 15.81 12.863 9.38 4.823 21.438 4.823 12.594 0 21.973-5.091 9.38-5.092 15.543-13.13 6.163-8.308 9.11-18.49 3.217-10.452 3.217-21.17 0-10.987-3.216-21.17-3.216-10.451-9.647-18.222-6.431-8.04-15.81-12.595-9.111-4.824-21.17-4.824-12.595 0-21.974 5.092-9.111 4.823-15.542 12.862-6.164 8.04-9.38 18.49-2.947 10.183-2.947 20.902zM437.28-52.569 482.03 82.49l44.216-135.058h46.36l-72.085 190.26h-36.98l-72.889-190.26ZM625.74-52.569h39.66l69.404 190.26h-45.02l-14.738-42.607h-59.222l-14.47 42.607h-45.02Zm42.07 117.372-22.24-67.26-22.778 67.26Z" style="font-style:normal;font-variant:normal;font-weight:800;font-stretch:normal;font-family:Raleway;-inkscape-font-specification:'Raleway Ultra-Bold';fill:#b3b3b3;fill-opacity:1;stroke-width:22.331px" transform="matrix(.09139 0 0 .09139 0 16.914)"/></g><g style="font-size:75.2726px;line-height:1.25;font-family:'Open Sans';-inkscape-font-specification:'Open Sans';fill:#fff;stroke-width:1.88182"><path d="M27.298 90.522q0-3.689 1.204-6.624 1.204-2.936 4.968-5.119 1.129-.677 2.785-1.505 1.656-.904 3.237-2.108 1.58-1.204 2.634-2.785 1.13-1.656 1.13-3.764 0-1.58-.603-2.785-.602-1.204-1.58-2.032-.98-.828-2.334-1.204-1.28-.452-2.635-.452-1.656 0-3.01.602-1.355.527-2.484 1.43-1.054.828-1.958 1.957-.828 1.054-1.43 2.033l-6.548-4.517q.978-2.333 2.559-4.14 1.656-1.806 3.688-3.01 2.108-1.28 4.517-1.882 2.408-.678 4.967-.678 2.86 0 5.646.828 2.785.828 4.968 2.635 2.258 1.806 3.613 4.667 1.43 2.785 1.43 6.699 0 2.409-.602 4.29-.527 1.807-1.58 3.312-1.055 1.506-2.485 2.71-1.43 1.205-3.236 2.334-1.506.903-3.011 1.731-1.506.828-2.785 1.882-1.205.978-2.033 2.333-.753 1.28-.753 3.162zm.15 17.538V97.673h8.355v10.387Z" style="font-weight:700;font-family:Raleway;-inkscape-font-specification:Raleway" aria-label="?"/></g></svg>